<svg width="90" height="92" viewBox="0 0 90 92" fill="none" xmlns="http://www.w3.org/2000/svg">
<g clip-path="url(#clip0_2_2)">
<rect width="90" height="92" fill="#161616"/>
<path d="M26.3093 68H24.9088L27.0428 61.8182H28.7271L30.8582 68H29.4576L27.9091 63.2308H27.8608L26.3093 68ZM26.2218 65.5701H29.5301V66.5904H26.2218V65.5701ZM30.6092 61.8182H32.0731L33.4827 64.4805H33.5431L34.9527 61.8182H36.4167L34.1619 65.8146V68H32.8639V65.8146L30.6092 61.8182ZM42.4378 64.9091C42.4378 65.5832 42.31 66.1567 42.0544 66.6296C41.8009 67.1025 41.4548 67.4637 41.0161 67.7132C40.5794 67.9608 40.0884 68.0845 39.5431 68.0845C38.9937 68.0845 38.5007 67.9598 38.064 67.7102C37.6273 67.4607 37.2822 67.0995 37.0287 66.6266C36.7751 66.1537 36.6483 65.5812 36.6483 64.9091C36.6483 64.235 36.7751 63.6615 37.0287 63.1886C37.2822 62.7157 37.6273 62.3555 38.064 62.108C38.5007 61.8584 38.9937 61.7337 39.5431 61.7337C40.0884 61.7337 40.5794 61.8584 41.0161 62.108C41.4548 62.3555 41.8009 62.7157 42.0544 63.1886C42.31 63.6615 42.4378 64.235 42.4378 64.9091ZM41.1127 64.9091C41.1127 64.4724 41.0473 64.1042 40.9165 63.8043C40.7877 63.5045 40.6056 63.2771 40.3701 63.1222C40.1347 62.9672 39.859 62.8897 39.5431 62.8897C39.2271 62.8897 38.9514 62.9672 38.716 63.1222C38.4806 63.2771 38.2974 63.5045 38.1666 63.8043C38.0378 64.1042 37.9735 64.4724 37.9735 64.9091C37.9735 65.3458 38.0378 65.714 38.1666 66.0138C38.2974 66.3137 38.4806 66.5411 38.716 66.696C38.9514 66.851 39.2271 66.9284 39.5431 66.9284C39.859 66.9284 40.1347 66.851 40.3701 66.696C40.6056 66.5411 40.7877 66.3137 40.9165 66.0138C41.0473 65.714 41.1127 65.3458 41.1127 64.9091ZM45.8811 61.8182H47.173V66.1286C47.173 66.527 47.0834 66.8731 46.9043 67.1669C46.7273 67.4607 46.4807 67.6871 46.1648 67.8461C45.8489 68.005 45.4816 68.0845 45.0631 68.0845C44.6908 68.0845 44.3527 68.0191 44.0489 67.8883C43.747 67.7555 43.5076 67.5543 43.3305 67.2846C43.1534 67.013 43.0659 66.6719 43.0679 66.2614H44.3688C44.3729 66.4244 44.4061 66.5642 44.4684 66.6809C44.5328 66.7956 44.6204 66.8842 44.731 66.9466C44.8437 67.0069 44.9765 67.0371 45.1295 67.0371C45.2905 67.0371 45.4263 67.0029 45.537 66.9345C45.6497 66.8641 45.7352 66.7614 45.7935 66.6266C45.8519 66.4918 45.8811 66.3258 45.8811 66.1286V61.8182ZM49.3191 68H47.9185L50.0526 61.8182H51.7369L53.8679 68H52.4674L50.9189 63.2308H50.8706L49.3191 68ZM49.2316 65.5701H52.5398V66.5904H49.2316V65.5701ZM54.612 68V61.8182H55.919V64.5439H56.0005L58.2251 61.8182H59.7917L57.4976 64.5861L59.8188 68H58.2553L56.5619 65.4585L55.919 66.2433V68H54.612ZM61.5379 68H60.1373L62.2714 61.8182H63.9557L66.0867 68H64.6861L63.1377 63.2308H63.0894L61.5379 68ZM61.4503 65.5701H64.7586V66.5904H61.4503V65.5701Z" fill="white"/>
<path d="M36.7898 56H26.1364L38.1392 19.6364H51.6335L63.6364 56H52.983L45.0284 29.6506H44.7443L36.7898 56ZM34.8011 41.6534H54.8295V49.0398H34.8011V41.6534Z" fill="white"/>
</g>
<defs>
<clipPath id="clip0_2_2">
<rect width="90" height="92" fill="white"/>
</clipPath>
</defs>
</svg>
